<?xml version="1.0" encoding="utf-8"?>
<!-- Generator: Adobe Illustrator 27.3.1, SVG Export Plug-In . SVG Version: 6.00 Build 0)  -->
<svg version="1.1" id="Layer_1" xmlns="http://www.w3.org/2000/svg" xmlns:xlink="http://www.w3.org/1999/xlink" x="0px" y="0px"
	 viewBox="0 0 154.86 218.29" style="enable-background:new 0 0 154.86 218.29;" xml:space="preserve">
<style type="text/css">
	.st0{fill:#FFFFFF;}
</style>
<g>
	<g>
		<path class="st0" d="M92.08,52.11c-0.77-0.04-1.54-0.13-2.3-0.11c-0.82,0.01-1.09,0.32-0.6,1.15c1.12,1.86,2.33,3.34,4.85,3.34
			c1.7,0,3.48,0.44,4.26,2.41c-0.56,0.3-0.74-0.18-1-0.39c-0.48-0.39-0.98-0.73-1.6-0.81c-0.25-0.03-0.54-0.08-0.69,0.2
			c-0.13,0.23,0.05,0.42,0.21,0.57c1.08,0.98,1.36,2.22,1.46,3.63c0.13,1.79,1.76,3.46,3.44,3.86c1.13,0.26,2.03-0.7,3.14-0.56
			c0.23,0.03,0.49-0.09,0.73-0.13c0.02,0.17,0.07,0.3,0.04,0.33c-1.09,0.83-1.43,2-1.72,3.29c-0.43,1.9-2.27,2.24-3.78,2.83
			c-0.83,0.32-1.61,0.49-1.22,1.67c0.12,0.37-0.19,0.67-0.48,0.85c-2.57,1.63-2.33,4.03-1.73,6.48c0.32,1.32,1.08,2.45,1.83,3.58
			c0.98,1.48,1.98,2.96,2.35,4.76c0.33,1.61-0.19,2.45-1.82,2.31c-3.15-0.26-6.23,0.1-9.3,0.64c-3.99,0.71-7.65,2.27-11.08,4.39
			c-2.68,1.65-5.61,2.54-8.73,2.8c-1.53,0.13-1.88-0.25-1.4-1.71c0.8-2.44,0.82-4.85,0.11-7.3c-0.39-1.34-0.45-2.74-0.5-4.13
			c-0.11-2.57-1.28-4.14-3.77-4.81c-1.51-0.41-3.05-0.69-4.62-0.79c-2.37-0.15-3.6-1.69-3.2-4.06c0.22-1.32,0.66-2.63-0.08-3.93
			c-0.08-0.13-0.09-0.38-0.02-0.51c0.66-1.25,0.43-2.3-0.57-3.27c-0.31-0.3-0.12-0.73-0.01-1.12c0.36-1.3,0.07-1.77-1.26-1.91
			c-0.78-0.08-1.57-0.01-2.34-0.09c-1.16-0.12-1.52-0.7-1.14-1.8c0.2-0.57,0.44-1.18,0.84-1.61c1.08-1.16,1.62-2.56,2.04-4.03
			c0.45-1.61,1.09-3.1,2.2-4.39c1.01-1.17,1.39-2.61,1.34-4.13c-0.04-1.15,0.3-2.15,0.91-3.07c0.69-1.04,1.05-2.17,1.18-3.41
			c0.19-1.9,1.02-3.58,1.95-5.21c0.42-0.73,0.68-1.47,0.67-2.34c-0.01-0.98,0.3-1.89,1.07-2.57c0.46-0.4,0.9-0.71,0.98,0.28
			c0.02,0.25,0.04,0.57,0.4,0.56c0.31-0.01,0.38-0.32,0.49-0.55c0.31-0.62,0.59-1.26,0.92-1.87c0.25-0.46,0.58-0.56,0.79,0.05
			c0.12,0.34,0.29,0.63,0.56,0.86c0.28,0.23,0.61,0.45,0.94,0.25c0.45-0.28,0.07-0.61-0.06-0.9c-0.53-1.23-0.49-2.29,0.87-2.96
			c0.36-0.18,0.42-0.51,0.5-0.86c0.12-0.51,0.2-1.04,0.41-1.5c0.69-1.51,1.13-1.54,2.13-0.25c0.62,0.8,1.24,1.51,2.5,1.16
			c0.56-0.15,1.25,0.24,1.9,0.31c1.14,0.13,2.27-0.08,3.33-0.46c1.95-0.69,3.97-0.72,5.91-0.31c3.62,0.76,7.12,1.86,10.14,4.21
			c2.16,1.68,4.44,3.2,6.34,5.19c1.58,1.66,2.63,3.54,2.9,5.84c0.11,1.01,0.46,1.95,1.04,2.78c1.91,2.72,1.56,5.58,0.46,8.44
			c-0.3,0.79-0.59,1.49-0.34,2.36c0.25,0.86-0.12,1.72-0.17,2.58c-0.04,0.63-0.38,1.23,0.44,1.81c0.65,0.47-0.48,4.24-1.28,4.57
			c-0.89,0.37-1.62,0.18-2.03-0.78c-0.43-1.01-0.32-2.03-0.11-3.07c0.23-1.1,0.57-2.2,0.21-3.34c-0.08-0.25-0.17-0.54-0.47-0.57
			c-0.32-0.03-0.38,0.28-0.49,0.52c-0.25,0.53-0.32,1.54-0.91,1.37c-0.71-0.21-0.23-1.13-0.18-1.73c0.17-1.87-0.15-3.63-0.97-5.31
			c-0.17-0.35-0.35-0.7-0.54-1.04c-0.2-0.36-0.04-1.04-0.58-1.05c-0.53-0.01-0.67,0.61-0.88,1.03c-0.45,0.9-0.38,1.94-0.68,2.9
			c-0.65-0.12-0.57-0.65-0.63-1.03c-0.35-2.02-1.28-3.65-2.91-4.92c-1.16-0.9-2.35-1.84-2.43-3.53c-0.01-0.21-0.11-0.44-0.36-0.48
			c-0.26-0.04-0.38,0.17-0.5,0.35c-0.41,0.59-0.55,1.26-0.57,1.97c-0.01,0.41,0.22,0.86-0.24,1.36c-1.12-1.04-1.3-2.42-1.38-3.76
			c-0.11-1.79-0.9-3.24-1.98-4.58c-0.24-0.29-0.5-0.68-0.95-0.55c-0.4,0.11-0.36,0.54-0.47,0.86c-0.48,1.51-0.29,2.98,0.2,4.49
			c-1.05-0.81-1.33-2.02-1.4-3.2c-0.07-1.22-0.28-2.21-1.42-2.84c-0.37-0.2-0.46-0.61-0.5-1.01c-0.2-1.83-1.12-3.27-2.46-4.46
			c-0.95-0.84-1.91-1.63-2.56-2.75c-0.43-0.74-0.9-0.59-1.2,0.13c-0.31,0.73-0.63,0.74-1.08,0.12c-0.75-1.04-1.93-1.61-2.8-2.52
			c-0.64-0.67-0.97-0.27-1.16,0.39c-0.31,1.09,0.19,2.04,0.52,3.02c0.12,0.37,0.92,1.02-0.4,1.06c-0.57,0.01-0.31,0.81-0.14,1.21
			c0.64,1.55,1.91,2.41,3.44,2.98c1.21,0.46,2.4,0.99,3.21,2.6c-1.09-0.62-1.86-1.11-2.67-1.51c-0.36-0.18-0.84-0.49-1.2-0.08
			c-0.32,0.36,0.12,0.71,0.21,1.08c0.83,3.42,3.34,4.38,6.47,4.44c0.09,0,0.18-0.01,0.26,0.01c0.48,0.09,1.3-0.21,1.32,0.44
			c0.01,0.8-0.85,0.45-1.35,0.54c-0.32,0.06-0.78-0.17-0.91,0.27c-0.12,0.38,0.31,0.58,0.53,0.82c1.54,1.64,3.4,2.35,5.65,1.9
			c0.21-0.04,0.43-0.07,0.65-0.07c0.26,0,0.59,0.02,0.6,0.35c0.02,0.34-0.32,0.37-0.57,0.38c-1.09,0.04-2.18,0.08-3.16,0.65
			c-0.28,0.17-0.74,0.26-0.62,0.71c0.1,0.37,0.51,0.25,0.79,0.28c1.24,0.12,2.39,0.53,3.36,1.31c1.19,0.96,2.5,1.32,4,1.24
			C90.35,51.09,91.33,51.17,92.08,52.11z"/>
		<path class="st0" d="M34.37,82.52c0.65,0.16,0.75,0.68,0.91,1.09c0.96,2.4,2.54,4.04,4.97,5.19c7.82,3.69,15.52,7.61,23.27,11.44
			c6.15,3.04,12.31,6.06,18.46,9.1c7.98,3.94,15.96,7.89,23.94,11.83c1.48,0.73,2.96,1.46,4.47,2.13c1.65,0.74,3.4,1.01,5.21,0.97
			c0.33-0.01,0.76-0.08,0.89,0.35c0.1,0.34-0.21,0.56-0.43,0.75c-5.2,4.52-11.17,6.54-18.03,3.3c-5.31-2.5-10.56-5.11-15.82-7.7
			c-20.27-9.98-40.53-19.98-60.82-29.93c-3.47-1.7-5.16-4.67-6.14-8.15c-0.48-1.71-0.74-3.48-1.02-5.24c-0.22-1.33,0.12-1.59,1.37-1
			c2.16,1.01,4.29,2.1,6.43,3.17c0.54,0.27,1.03,0.64,1.99,0.66c-1.13-1.1-2.22-1.79-3.41-2.32c-3.61-1.6-6.01-4.21-6.84-8.14
			c-0.23-1.08-0.15-2.16-0.12-3.25c0.01-0.26,0.01-0.55,0.29-0.68c0.3-0.14,0.51,0.1,0.64,0.31c0.9,1.45,2.39,2.1,3.81,2.85
			c1.37,0.72,2.55,1.63,3.31,3.04c0.24,0.45,0.55,0.98,1.14,0.95c0.6-0.03,0.6-0.66,0.79-1.07c0.9-1.99,2.57-3.37,3.91-5.02
			c0.3-0.37,0.61-0.74,0.91-1.1c0.18-0.21,0.25-0.65,0.64-0.49c0.34,0.14,0.23,0.53,0.23,0.82c0.03,2.48,0.05,4.94-0.56,7.38
			c-0.33,1.3-1.15,2.24-1.96,3.18c-0.95,1.09-1.18,2.38-1.38,3.72c-0.1,0.66,0.27,0.95,0.8,1.17c0.6,0.24,0.9-0.1,1.1-0.59
			c0.87-2.12,2.28-4.01,2.75-6.31c0.04-0.21,0.07-0.46,0.32-0.52c0.26-0.07,0.42,0.14,0.47,0.35c0.57,2.35,1.86,4.52,1.88,7.02
			c0,0.71-0.16,1.38-0.38,2.04c-0.33,0.99,0.28,1.44,1.06,1.55c0.86,0.12,0.72-0.66,0.78-1.19C34.26,83.62,34.08,83.05,34.37,82.52z
			"/>
		<path class="st0" d="M93.06,138.2c-2.7-0.15-5.27-0.92-7.7-2.12c-11.19-5.49-22.37-11-33.56-16.5
			c-6.78-3.34-13.52-6.75-20.36-9.97c-3.17-1.49-4.95-3.98-6.1-7.09c-0.68-1.84-1.01-3.78-1.24-5.72c-0.22-1.86,0.1-2.07,1.76-1.26
			c5.35,2.61,10.68,5.25,16.02,7.88c8.26,4.07,16.52,8.15,24.77,12.22c9.15,4.52,18.29,9.06,27.46,13.54
			c3.12,1.53,6.26,3.05,9.86,3.12c0.25,0.01,0.56-0.04,0.67,0.27c0.1,0.29-0.15,0.48-0.34,0.65
			C101.08,136.03,97.41,137.86,93.06,138.2z"/>
		<path class="st0" d="M120.91,83.07c0.41,0.56,0.2,0.96,0.25,1.33c0.06,0.44-0.11,1.11,0.63,1.02c0.59-0.08,1.26-0.35,1.03-1.19
			c-0.83-3.13,0.52-5.84,1.62-8.59c0.11-0.27,0.2-0.63,0.59-0.58c0.39,0.05,0.44,0.43,0.44,0.71c0,1.97,1.17,3.5,1.89,5.21
			c0.48,1.13,0.96,1.29,2.03,0.74c3.28-1.7,6.6-3.31,9.91-4.95c0.33-0.16,0.67-0.56,1.06-0.33c0.44,0.27,0.26,0.8,0.2,1.2
			c-0.43,3.46-1.07,6.87-3.01,9.88c-0.9,1.39-2.06,2.47-3.52,3.21c-7.2,3.65-14.41,7.29-21.62,10.94
			c-6.39,3.23-12.79,6.46-19.16,9.72c-0.81,0.42-1.5,0.45-2.33,0.03c-2.86-1.46-5.76-2.86-8.64-4.29c-0.37-0.18-0.93-0.26-0.9-0.8
			c0.03-0.43,0.52-0.56,0.85-0.73c4.76-2.43,9.53-4.83,14.29-7.25c6.59-3.34,13.17-6.68,19.76-10c1.25-0.63,2.19-1.49,2.84-2.74
			C119.6,84.74,120.26,83.98,120.91,83.07z"/>
		<path class="st0" d="M81.54,146.14c-2.68-0.12-5.02-0.73-7.23-1.8c-6.68-3.25-13.35-6.51-20-9.8c-4.75-2.35-9.46-4.77-14.21-7.11
			c-1.79-0.88-3.11-2.2-4.09-3.89c-1.59-2.72-2.28-5.72-2.56-8.81c-0.13-1.43,0.15-1.62,1.43-0.99c6.09,2.98,12.16,6,18.24,8.99
			c10.68,5.25,21.36,10.5,32.06,15.72c2.17,1.06,4.49,1.6,6.92,1.69c0.29,0.01,0.66-0.09,0.82,0.25c0.16,0.36-0.17,0.55-0.38,0.74
			C89.37,144.06,85.65,145.75,81.54,146.14z"/>
		<path class="st0" d="M130.84,96.46c-0.18,2.76-0.83,5.88-2.34,8.8c-1.02,1.98-2.51,3.42-4.46,4.4c-5.74,2.9-11.49,5.76-17.23,8.66
			c-0.64,0.32-1.18,0.36-1.84,0.03c-3.02-1.54-6.06-3.03-9.09-4.55c-0.33-0.16-0.85-0.21-0.84-0.69c0.01-0.39,0.47-0.47,0.77-0.62
			c9.49-4.81,18.99-9.61,28.48-14.41c1.82-0.92,3.63-1.86,5.45-2.8C130.53,94.86,130.99,94.96,130.84,96.46z"/>
		<path class="st0" d="M126.58,66.26c1.48,2.73,4.46,4.29,5.45,7.35c0.2,0.62,0.55,0.86,0.95,0.18c1.38-2.36,3.36-3.92,5.98-4.72
			c0.88-0.27,1.28-1.14,1.86-1.78c0.23-0.25,0.45-0.63,0.83-0.53c0.43,0.11,0.32,0.56,0.34,0.89c0.11,2.12-0.24,4.15-1.12,6.09
			c-0.5,1.1-1.21,1.92-2.31,2.53c-2.52,1.38-5.15,2.51-7.73,3.77c-0.69,0.33-0.97,0.24-1.24-0.48c-0.39-1.03-1.15-1.84-1.82-2.68
			c-1.14-1.42-1.68-3.04-1.71-4.82C126.01,70.15,125.94,68.24,126.58,66.26z"/>
		<path class="st0" d="M126.27,57.62c0.08-0.49-0.17-1.01,0.24-1.18c0.48-0.2,0.58,0.4,0.8,0.67c0.74,0.91,1.52,1.77,2.48,2.47
			c1.23,0.9,2.38,1.89,3.21,3.2c0.43,0.67,0.87,0.76,1.15-0.1c0.56-1.72,1.75-2.98,3.03-4.17c1.17-1.09,2.44-2.09,3.2-3.56
			c0.21-0.41,0.56-0.78,0.87-0.01c1.57,3.94,0.08,9.41-3.22,11.25c-1.36,0.76-2.48,1.89-3.56,3.02c-0.56,0.59-0.88,1.74-1.65,1.72
			c-1.03-0.03-0.62-1.34-1.02-2c-0.37-0.61-0.81-1.14-1.36-1.56c-2.31-1.74-3.33-4.14-3.7-6.91
			C126.6,59.47,126.41,58.49,126.27,57.62z"/>
		<path class="st0" d="M29.06,55.23c0.18,0.18,0.29,0.26,0.28,0.3c-0.83,4-0.56,8.43-4.37,11.29c-0.92,0.69-1.48,1.68-1.81,2.8
			c-0.11,0.38-0.37,1.06-0.82,0.37c-1.34-2.06-3.47-3.26-5.19-4.9c-3.02-2.89-3.58-6.38-2.89-10.27c0.07-0.41,0.1-0.99,0.57-1.09
			c0.52-0.11,0.62,0.5,0.88,0.82c0.71,0.87,1.41,1.75,2.27,2.51c1.56,1.36,2.81,2.96,3.4,4.99c0.08,0.29,0.11,0.66,0.47,0.7
			c0.36,0.04,0.52-0.31,0.62-0.58c0.56-1.52,1.7-2.45,3.06-3.23c1.1-0.63,1.94-1.59,2.7-2.61C28.49,55.97,28.77,55.61,29.06,55.23z"
			/>
		<path class="st0" d="M139.82,48.66c0.31,2.15-0.45,3.84-1.8,5.32c-1.53,1.67-2.96,3.41-3.86,5.53c-0.36,0.85-0.82,1.04-1.27,0.05
			c-0.38-0.82-0.95-1.49-1.76-1.86c-3.34-1.54-4.76-4.53-5.94-7.71c-0.24-0.65-0.44-1.32-0.64-1.98c-0.07-0.24-0.16-0.54,0.15-0.68
			c0.24-0.11,0.39,0.12,0.55,0.26c0.5,0.42,0.97,0.87,1.49,1.27c1.06,0.83,2.13,1.64,3.48,1.98c0.9,0.22,1.41,0.96,1.97,1.63
			c0.52,0.62,1.05,0.57,1.14-0.27c0.3-2.78,1.89-4.89,3.5-6.99c0.24-0.31,0.39-0.67,0.61-1c0.28-0.43,0.15-1.3,0.67-1.29
			c0.71,0.01,0.61,0.92,0.84,1.44C139.59,45.73,140.03,47.18,139.82,48.66z"/>
		<path class="st0" d="M17.93,42.19c0.36,0.14,0.47,0.49,0.55,0.82c0.22,0.95,0.65,1.8,1.26,2.55c1.32,1.61,2.29,3.37,2.48,5.49
			c0.03,0.37,0.08,0.85,0.53,0.97c0.47,0.13,0.7-0.31,0.89-0.62c0.6-0.99,1.52-1.57,2.53-1.97c1.51-0.6,2.96-1.24,4.07-2.48
			c0.19-0.22,0.47-0.48,0.79-0.3c0.29,0.16,0.13,0.47,0.02,0.69c-0.95,1.95-1.48,4.08-2.57,5.98c-0.73,1.28-1.7,2.31-2.98,3.02
			c-1.16,0.64-2.23,1.33-2.84,2.57c-0.26,0.53-0.55,0.75-0.99,0.06c-1.51-2.38-3.11-4.69-4.6-7.08c-1.99-3.21-0.98-6.65,0.35-9.32
			C17.53,42.36,17.67,42.2,17.93,42.19z"/>
		<path class="st0" d="M35.35,38.07c-0.26,1.07-1.02,1.87-1.52,2.79c-1.59,2.96-3.78,5.16-7.27,5.74c-0.92,0.15-1.39,0.99-1.98,1.62
			c-0.5,0.53-1.1,0.69-1.18-0.18c-0.21-2.3-1.46-4.17-2.44-6.12c-1.96-3.93-0.74-7.31,1.51-10.59c0.17-0.25,0.36-0.54,0.7-0.51
			c0.3,0.03,0.46,0.31,0.46,0.56c0.05,1.89,1.11,3.44,1.65,5.16c0.44,1.42,0.45,2.91,0.43,4.39c0,0.38-0.04,0.83,0.43,1
			c0.39,0.14,0.65-0.16,0.91-0.38c0.82-0.68,1.78-1.05,2.81-1.28c1.57-0.35,3.1-0.82,4.39-1.87C34.52,38.18,34.81,37.84,35.35,38.07
			z"/>
		<path class="st0" d="M129.52,30.35c-0.01,1.01-0.14,1.99-0.41,2.96c-0.5,1.76-0.71,3.57-0.66,5.4c0.02,0.8-0.27,1.09-0.98,0.49
			c-0.79-0.67-1.76-0.94-2.76-1.04c-3.18-0.32-5.43-2.08-7.24-4.57c-0.53-0.74-1.08-1.46-1.63-2.19c-0.18-0.24-0.49-0.45-0.3-0.79
			c0.23-0.4,0.64-0.26,0.93-0.12c2.26,1.07,5.03,0.71,7.02,2.53c0.25,0.23,0.63,0.39,0.96,0.15c0.35-0.25,0.21-0.62,0.1-0.95
			c-0.9-2.71-0.53-5.5-0.51-8.27c0-0.44-0.02-1.06,0.51-1.24c0.44-0.15,0.81,0.28,1.11,0.56C127.67,25.24,129.56,27.27,129.52,30.35
			z"/>
		<path class="st0" d="M120.44,38.66c2.08,1.62,4.53,2.19,6.93,2.89c0.51,0.15,0.92,0.64,1.39,0.95c0.69,0.45,1.24,0.37,1.19-0.55
			c-0.16-2.83,0.63-5.4,1.99-7.84c0.32-0.57,0.37-1.24,0.4-1.9c0.01-0.26,0.08-0.54,0.41-0.58c0.26-0.03,0.37,0.19,0.49,0.36
			c2.48,3.48,3.64,7.08,1.3,11.15c-1.03,1.8-1.95,3.69-2.36,5.76c-0.12,0.62-0.55,0.72-0.89,0.19c-0.89-1.37-2.24-1.83-3.73-2.12
			c-0.97-0.19-1.78-0.73-2.46-1.4C123.11,43.6,122.14,40.92,120.44,38.66z"/>
		<path class="st0" d="M31.9,25.71c0.16,1.95-0.01,3.72-0.48,5.45c-0.12,0.44-0.39,1.01,0.05,1.34c0.48,0.36,0.89-0.16,1.25-0.42
			c2.13-1.52,4.69-1.67,7.1-2.26c0.23-0.06,0.55-0.11,0.7,0.18c0.14,0.28-0.12,0.48-0.25,0.69c-1.59,2.38-3.56,4.38-6,5.88
			c-0.79,0.48-1.68,0.69-2.6,0.79c-1.21,0.13-2.43,0.25-3.42,1.09c-0.28,0.24-0.77,0.42-0.74-0.15c0.16-2.9-1.13-5.62-1.05-8.5
			c0.09-3.26,2.19-5.38,4.27-7.49c0.67-0.68,1.11-0.22,1.16,0.57C31.94,23.87,31.9,24.87,31.9,25.71z"/>
		<path class="st0" d="M122.16,23.94c0.02,1.84-0.5,3.69,0.13,5.54c0.13,0.39-0.05,0.78-0.53,0.57c-1.9-0.86-4-0.7-5.97-1.21
			c-2.81-0.72-4.5-3-6.59-4.72c-0.11-0.09-0.19-0.31-0.16-0.45c0.05-0.25,0.32-0.32,0.52-0.25c2.36,0.86,4.96-0.19,7.29,0.94
			c0.7,0.34,1.01-0.13,0.66-0.65c-1.58-2.38-0.75-5.18-1.46-7.7c-0.08-0.28-0.21-0.62,0.05-0.86c0.33-0.32,0.67-0.04,0.95,0.12
			C120.42,17.16,122.33,19.94,122.16,23.94z"/>
		<path class="st0" d="M33.72,28.26c0.45-2.61,0.05-5.29,0.74-7.88c0.74-2.73,2.6-4.43,4.93-5.75c0.17-0.1,0.45-0.15,0.6-0.07
			c0.28,0.15,0.18,0.46,0.09,0.7c-0.35,0.87-0.37,1.79-0.31,2.7c0.1,1.61-0.22,3.1-0.98,4.52c-0.22,0.42-0.52,0.92-0.09,1.32
			c0.4,0.38,0.78-0.14,1.18-0.22c2.25-0.49,4.54-0.44,6.82-0.51c0.57-0.02,0.32,0.41,0.07,0.7c-2.48,2.89-5.45,4.8-9.42,4.73
			c-0.84-0.01-1.61,0.31-2.37,0.64C33.92,29.59,33.68,29.41,33.72,28.26z"/>
		<path class="st0" d="M46.34,21.74c-0.76,0.04-1.46-0.2-2.18-0.35c-0.42-0.09-0.86-0.11-1.28-0.21c-0.58-0.14-1.25,0.76-1.61,0.09
			c-0.2-0.37,0.34-1.1,0.47-1.69c0.3-1.31,0.54-2.63,0.83-3.94c0.65-2.9,3.15-4.75,6.03-5.49c0.55-0.14,0.78,0.08,0.56,0.61
			c-0.83,1.98-1.03,4.24-2.64,5.88c-0.3,0.3-0.62,0.71-0.35,1.16c0.28,0.46,0.77,0.25,1.19,0.2c2.21-0.26,4.39,0.25,6.6,0.22
			c0.14,0,0.35,0.13,0.4,0.25c0.08,0.23-0.12,0.39-0.29,0.52c-0.85,0.6-1.72,1.15-2.71,1.53C49.74,21.14,48.08,21.62,46.34,21.74z"
			/>
		<path class="st0" d="M107.16,10.73c3.85,0.66,5.82,2.59,6.54,6.37c0.28,1.45,0.58,2.89,1.22,4.24c0.3,0.62,0.25,0.9-0.55,0.72
			c-0.46-0.1-0.99-0.19-1.41-0.05c-3.52,1.2-6.43-0.49-9.37-1.96c-0.55-0.27-1.21-0.48-1.57-1.08c0.07-0.09,0.13-0.22,0.17-0.22
			c2.46,0.37,4.89-0.35,7.34-0.27c0.43,0.01,1-0.04,0.53-0.56c-1.42-1.58-1.55-3.64-2.25-5.49
			C107.63,11.92,107.42,11.4,107.16,10.73z"/>
		<path class="st0" d="M120.64,115.98c-0.05,0.96-0.21,1.89-0.41,2.83c-0.61,2.96-1.47,3.56-5.07,3.48
			c-2.05-0.05-3.97-0.85-5.79-1.83c-0.71-0.38-0.76-0.67-0.04-1.02c3.42-1.69,6.85-3.38,10.28-5.07c0.78-0.38,1.03-0.05,1.03,0.7
			C120.64,115.37,120.64,115.68,120.64,115.98z"/>
		<path class="st0" d="M55.03,17.02c-1.8,0-3.53-0.92-5.4-0.41c-0.47,0.13-0.55-0.36-0.27-0.69c0.86-1.01,1.07-2.26,1.36-3.48
			c0.64-2.74,2.65-3.9,5.12-4.57c0.24-0.06,0.51-0.23,0.69,0.07c0.13,0.22-0.04,0.42-0.16,0.59c-0.94,1.4-0.7,3.2-1.61,4.63
			c-0.31,0.48,0.15,0.84,0.66,0.81c1.86-0.11,3.55,0.76,5.37,0.88c0.24,0.02,0.58-0.01,0.59,0.35c0.01,0.24-0.23,0.35-0.44,0.4
			C58.98,16.12,57.13,17.07,55.03,17.02z"/>
		<path class="st0" d="M94.62,15.4c2.27-0.35,4.18-0.69,6.1-0.93c0.95-0.12,1.2-0.39,0.81-1.33c-0.53-1.31-0.5-2.8-1.34-4.05
			c-0.39-0.58,0.2-0.72,0.69-0.61c2.21,0.52,3.94,1.62,4.63,3.92c0.39,1.32,0.46,2.75,1.41,3.88c0.3,0.35,0.15,0.64-0.34,0.71
			c-3.82,0.57-7.59,0.63-11.21-1.04C95.22,15.87,95.1,15.75,94.62,15.4z"/>
		<path class="st0" d="M61.64,12.3c-1.43-0.04-2.51-0.02-3.58,0.2c-0.28,0.06-0.66,0.15-0.85-0.14c-0.23-0.34,0.12-0.55,0.32-0.75
			c2.15-2.18,4.73-3.31,7.83-3.15c0.49,0.02,0.95,0.12,1.32,0.47c0.58,0.53,1.28,1.11,1.02,1.96c-0.27,0.89-1.13,1.15-2,1.15
			C64.23,12.04,62.78,12.51,61.64,12.3z"/>
		<path class="st0" d="M91.88,8.66c2.56,0.29,4.91,1.2,6.84,3.04c0.24,0.23,0.61,0.48,0.47,0.86c-0.17,0.44-0.6,0.22-0.91,0.16
			c-2.23-0.39-4.52,0.12-6.74-0.38c-0.3-0.07-0.6-0.09-0.9-0.16c-0.85-0.19-1.86-0.29-1.83-1.46c0.03-1.11,0.9-1.62,1.85-1.92
			C91.03,8.69,91.43,8.71,91.88,8.66z"/>
	</g>
	<g>
		<path class="st0" d="M17.57,201.42H14.7c-0.4-1.69-1.44-2.54-3.14-2.54c-1.27,0-2.25,0.51-2.93,1.52
			c-0.59,0.89-0.88,2.07-0.88,3.55c0,1.67,0.37,2.94,1.11,3.81c0.64,0.75,1.51,1.13,2.6,1.13c0.94,0,1.69-0.25,2.25-0.74
			c0.56-0.49,0.89-1.2,0.98-2.11h2.93c-0.1,1.78-0.78,3.15-2.05,4.12c-1.09,0.85-2.49,1.27-4.2,1.27c-2.19,0-3.88-0.77-5.08-2.3
			c-1.04-1.32-1.56-3.07-1.56-5.25c0-2.49,0.68-4.41,2.05-5.78c1.19-1.2,2.74-1.8,4.65-1.8c2.27,0,3.98,0.76,5.14,2.27
			C17.16,199.32,17.49,200.27,17.57,201.42z"/>
		<path class="st0" d="M28.47,208.24h-5.49l-0.98,2.95h-3.07l5.21-14.67h3.34l5.08,14.67h-3.12L28.47,208.24z M27.65,205.72
			l-1.91-5.74l-1.93,5.74H27.65z"/>
		<path class="st0" d="M37.47,204.88v3.79h7.95v2.52H34.45v-14.67h10.59v2.52h-7.58v3.32h7.03v2.52H37.47z"/>
		<path class="st0" d="M58.49,200.94h-2.83c-0.1-1.49-1.12-2.23-3.07-2.23c-0.78,0-1.4,0.16-1.85,0.47
			c-0.46,0.31-0.69,0.74-0.69,1.27c0,0.52,0.19,0.91,0.57,1.17c0.38,0.26,1.12,0.49,2.21,0.7l2.3,0.43c1.35,0.26,2.34,0.7,2.95,1.33
			S59,205.6,59,206.74c0,1.57-0.6,2.77-1.8,3.59c-1.04,0.72-2.44,1.09-4.2,1.09c-2.01,0-3.54-0.46-4.59-1.39
			c-0.92-0.81-1.41-1.93-1.5-3.36h2.93c0.11,1.56,1.21,2.34,3.3,2.34c0.93,0,1.66-0.17,2.18-0.5c0.53-0.33,0.79-0.8,0.79-1.38
			c0-0.57-0.21-1.02-0.62-1.33c-0.42-0.31-1.13-0.57-2.14-0.76l-2.05-0.39c-1.49-0.27-2.55-0.71-3.19-1.3s-0.95-1.45-0.95-2.57
			c0-1.52,0.55-2.66,1.66-3.44c0.96-0.68,2.25-1.02,3.89-1.02c1.98,0,3.47,0.45,4.47,1.35C58.04,198.44,58.48,199.54,58.49,200.94z"
			/>
		<path class="st0" d="M69.78,208.24h-5.49l-0.98,2.95h-3.07l5.21-14.67h3.34l5.08,14.67h-3.12L69.78,208.24z M68.96,205.72
			l-1.91-5.74l-1.93,5.74H68.96z"/>
		<path class="st0" d="M78.78,205.37v5.82h-3.01v-14.67h7.87c1.24,0,2.19,0.33,2.85,1c0.74,0.75,1.11,1.74,1.11,2.97
			c0,1.78-0.83,2.99-2.5,3.63c0.94,0.37,1.52,0.83,1.72,1.37c0.15,0.4,0.26,1.71,0.33,3.96c0.01,0.56,0.23,0.96,0.64,1.19v0.55
			h-3.24c-0.3-0.56-0.45-1.39-0.45-2.48c0-0.27,0.01-0.61,0.02-1c0-0.27,0-0.47,0-0.59c0-1.16-0.62-1.74-1.86-1.74H78.78z
			 M78.78,202.85h3.65c0.76,0,1.3-0.12,1.6-0.37c0.37-0.31,0.55-0.83,0.55-1.56c0-0.7-0.18-1.2-0.55-1.5
			c-0.31-0.26-0.85-0.39-1.6-0.39h-3.65V202.85z"/>
		<path class="st0" d="M97.02,205.37v5.82h-3.01v-14.67h7.87c1.24,0,2.19,0.33,2.85,1c0.74,0.75,1.11,1.74,1.11,2.97
			c0,1.78-0.83,2.99-2.5,3.63c0.94,0.37,1.52,0.83,1.72,1.37c0.15,0.4,0.26,1.71,0.33,3.96c0.01,0.56,0.23,0.96,0.64,1.19v0.55
			h-3.24c-0.3-0.56-0.45-1.39-0.45-2.48c0-0.27,0.01-0.61,0.02-1c0-0.27,0-0.47,0-0.59c0-1.16-0.62-1.74-1.86-1.74H97.02z
			 M97.02,202.85h3.65c0.76,0,1.3-0.12,1.6-0.37c0.37-0.31,0.55-0.83,0.55-1.56c0-0.7-0.18-1.2-0.55-1.5
			c-0.31-0.26-0.85-0.39-1.6-0.39h-3.65V202.85z"/>
		<path class="st0" d="M114.85,196.29c2.08,0,3.74,0.66,5,1.99c1.37,1.43,2.05,3.29,2.05,5.57c0,2.25-0.68,4.11-2.05,5.57
			c-1.24,1.33-2.91,1.99-5,1.99c-2.1,0-3.78-0.66-5.02-1.99c-1.37-1.46-2.05-3.32-2.05-5.57s0.68-4.11,2.05-5.57
			C111.08,196.95,112.76,196.29,114.85,196.29z M114.85,198.87c-1.31,0-2.34,0.51-3.09,1.54c-0.64,0.89-0.96,2.04-0.96,3.44
			c0,1.61,0.42,2.88,1.25,3.79c0.72,0.79,1.66,1.19,2.81,1.19c1.31,0,2.34-0.51,3.07-1.54c0.64-0.89,0.96-2.04,0.96-3.44
			c0-1.61-0.42-2.88-1.25-3.79C116.91,199.27,115.98,198.87,114.85,198.87z"/>
		<path class="st0" d="M132.76,208.24h-5.49l-0.98,2.95h-3.07l5.21-14.67h3.34l5.08,14.67h-3.12L132.76,208.24z M131.94,205.72
			l-1.91-5.74l-1.93,5.74H131.94z"/>
		<path class="st0" d="M138.74,211.19v-14.67h5.74c2.14,0,3.69,0.57,4.63,1.7c1.19,1.42,1.78,3.3,1.78,5.64
			c0,2.35-0.59,4.23-1.78,5.64c-0.96,1.13-2.5,1.7-4.63,1.7H138.74z M141.75,208.67h2.73c2.27,0,3.4-1.61,3.4-4.82
			s-1.13-4.82-3.4-4.82h-2.73V208.67z"/>
	</g>
	<g>
		<path class="st0" d="M13.78,164.48v8.88h1.26v2.53h-1.29c-0.13,1.98-0.92,3.51-2.36,4.56c-1.19,0.88-2.65,1.31-4.39,1.31
			c-0.3,0-0.62-0.01-0.97-0.02l-1.22-1.51v-1.07c0.53,0.08,1.04,0.12,1.54,0.12c2.93,0,4.39-1.42,4.39-4.27v-10.54H13.78z"/>
		<path class="st0" d="M19.46,173.36v2.53h-4.59v-2.53H19.46z"/>
		<path class="st0" d="M26.76,168.65c2.22-2.99,4.95-4.49,8.21-4.49c1.98,0,3.62,0.62,4.91,1.86c1.17,1.12,1.76,2.55,1.76,4.27v2.28
			c0,0.1-0.01,0.24-0.02,0.42c0,0.17,0,0.29,0,0.37h0.82v2.53h-0.5l-0.82-1.02h-0.07c-0.55,0.68-1.25,1.02-2.11,1.02H19.29v-2.53
			h4.46l-0.02-8.88h3.03V168.65z M38.61,170.43c-0.02-1.19-0.47-2.13-1.36-2.83c-0.76-0.56-1.68-0.84-2.75-0.84
			c-1.65,0-3.18,0.69-4.59,2.06c-1.29,1.08-2.34,2.59-3.15,4.54h11.24c0.41,0,0.62-0.21,0.62-0.62V170.43z"/>
		<path class="st0" d="M49.73,164.48v8.51v0.37h1.27v2.53h-0.87l-0.92-1.02h-0.05c-0.56,0.68-1.27,1.02-2.11,1.02h-4.79v-2.53H46
			c0.23,0,0.4-0.07,0.5-0.2c0.15-0.13,0.22-0.3,0.22-0.5v-8.19H49.73z M44.34,177.7c0.45,0,0.83,0.16,1.14,0.47s0.47,0.69,0.47,1.14
			c0,0.45-0.16,0.83-0.47,1.14c-0.31,0.31-0.69,0.47-1.14,0.47c-0.45,0-0.83-0.16-1.14-0.47c-0.31-0.31-0.47-0.69-0.47-1.14
			c0-0.45,0.16-0.83,0.47-1.14C43.52,177.86,43.9,177.7,44.34,177.7z M48.11,177.7c0.45,0,0.83,0.16,1.14,0.47
			c0.31,0.31,0.47,0.69,0.47,1.14c0,0.45-0.16,0.83-0.47,1.14c-0.31,0.31-0.69,0.47-1.14,0.47c-0.43,0-0.8-0.16-1.12-0.47
			c-0.31-0.31-0.47-0.69-0.47-1.14c0-0.45,0.16-0.83,0.47-1.14C47.31,177.86,47.68,177.7,48.11,177.7z"/>
		<path class="st0" d="M55.75,173.36c-0.74-0.99-1.12-2.19-1.12-3.6c0-1.27,0.32-2.37,0.97-3.3c1.04-1.52,2.55-2.28,4.51-2.28
			c1.49,0,2.74,0.46,3.75,1.39c1.17,1.08,1.76,2.47,1.76,4.19c0,1.36-0.37,2.55-1.12,3.6h1.71v2.53H62.5
			c-1.08,0-1.85-0.11-2.33-0.32h-0.12c-0.46,0.21-1.24,0.32-2.33,0.32h-6.9v-2.53H55.75z M58.28,159.02c0.45,0,0.83,0.16,1.14,0.47
			c0.31,0.31,0.47,0.69,0.47,1.14c0,0.43-0.16,0.8-0.47,1.12c-0.31,0.31-0.69,0.47-1.14,0.47c-0.43,0-0.8-0.16-1.12-0.47
			c-0.31-0.31-0.47-0.69-0.47-1.12c0-0.45,0.16-0.83,0.47-1.14C57.48,159.18,57.85,159.02,58.28,159.02z M60.12,173.33
			c0.74-0.08,1.34-0.43,1.8-1.03c0.45-0.6,0.68-1.38,0.68-2.32c0-0.99-0.22-1.79-0.67-2.38c-0.45-0.6-1.05-0.89-1.81-0.89
			c-0.74,0-1.34,0.3-1.8,0.89c-0.46,0.6-0.68,1.39-0.68,2.38c0,0.94,0.23,1.72,0.68,2.32C58.77,172.91,59.37,173.25,60.12,173.33z
			 M62.05,159.02c0.45,0,0.83,0.16,1.14,0.47c0.31,0.31,0.47,0.69,0.47,1.14c0,0.43-0.16,0.8-0.47,1.12
			c-0.31,0.31-0.69,0.47-1.14,0.47c-0.45,0-0.82-0.15-1.13-0.46c-0.31-0.31-0.46-0.68-0.46-1.13c0-0.45,0.15-0.83,0.46-1.14
			C61.23,159.18,61.61,159.02,62.05,159.02z"/>
		<path class="st0" d="M73.51,158.13v15.03c0,0.69-0.22,1.29-0.67,1.79c-0.51,0.63-1.18,0.94-2.01,0.94h-4.79v-2.53h3.82
			c0.18,0,0.34-0.07,0.47-0.2c0.12-0.12,0.17-0.26,0.17-0.42v-14.61H73.51z"/>
		<path class="st0" d="M79.96,158.13v17.14l-1.54,1.24h-1.49v-18.38H79.96z"/>
		<path class="st0" d="M99.31,175.89c-1.8,0-3.24-0.65-4.32-1.93c-0.86-1.07-1.29-2.46-1.29-4.17c0-1.55,0.5-2.87,1.49-3.94
			c1.11-1.11,2.53-1.66,4.27-1.66c1.27,0,2.36,0.31,3.25,0.92c1.19,0.86,1.79,2.08,1.79,3.67v4.59h0.79v2.53h-0.82
			c-0.12,1.85-0.8,3.3-2.06,4.34c-1.24,1.06-2.89,1.59-4.96,1.59h-2.46c-2.28,0-4.05-0.64-5.31-1.91c-1.16-1.12-1.74-2.66-1.74-4.61
			v-2.75l1.54-1.24h1.49v3.72c0,1.55,0.39,2.65,1.18,3.29c0.79,0.64,2.14,0.96,4.06,0.96c1.67,0,2.87-0.21,3.6-0.62
			c0.93-0.53,1.46-1.45,1.59-2.75H99.31z M97.6,159.02c0.45,0,0.83,0.16,1.14,0.47c0.31,0.31,0.47,0.69,0.47,1.14
			c0,0.43-0.16,0.8-0.47,1.12c-0.31,0.31-0.69,0.47-1.14,0.47c-0.43,0-0.8-0.16-1.12-0.47c-0.31-0.31-0.47-0.69-0.47-1.12
			c0-0.45,0.16-0.83,0.47-1.14C96.8,159.18,97.17,159.02,97.6,159.02z M101.47,168.77c0-0.65-0.22-1.17-0.67-1.56
			c-0.38-0.33-0.83-0.5-1.34-0.5c-0.79,0-1.43,0.27-1.91,0.79c-0.56,0.56-0.84,1.41-0.84,2.55c0,0.93,0.24,1.68,0.72,2.26
			c0.53,0.69,1.31,1.04,2.33,1.04h1.71V168.77z M101.39,159.02c0.45,0,0.82,0.16,1.13,0.47c0.31,0.31,0.46,0.69,0.46,1.14
			c0,0.45-0.15,0.82-0.46,1.13c-0.31,0.31-0.68,0.46-1.13,0.46s-0.83-0.16-1.14-0.47s-0.47-0.69-0.47-1.12
			c0-0.45,0.16-0.83,0.47-1.14C100.57,159.18,100.95,159.02,101.39,159.02z"/>
		<path class="st0" d="M112.58,164.48v8.68c0,0.65-0.21,1.24-0.65,1.79c-0.55,0.63-1.22,0.94-2.03,0.94h-4.79v-2.53h3.82
			c0.18,0,0.34-0.07,0.47-0.2c0.12-0.12,0.17-0.26,0.17-0.42v-8.26H112.58z M107.15,177.7c0.45,0,0.83,0.16,1.14,0.47
			c0.31,0.31,0.47,0.69,0.47,1.14c0,0.45-0.16,0.83-0.47,1.14c-0.31,0.31-0.69,0.47-1.14,0.47c-0.43,0-0.8-0.16-1.12-0.47
			c-0.31-0.31-0.47-0.69-0.47-1.14c0-0.45,0.16-0.83,0.47-1.14C106.34,177.86,106.72,177.7,107.15,177.7z M110.94,177.7
			c0.45,0,0.82,0.16,1.13,0.47c0.31,0.31,0.46,0.69,0.46,1.14c0,0.45-0.15,0.83-0.46,1.14c-0.31,0.31-0.68,0.47-1.13,0.47
			c-0.45,0-0.83-0.16-1.14-0.47c-0.31-0.31-0.47-0.69-0.47-1.14c0-0.45,0.16-0.83,0.47-1.14C110.11,177.86,110.5,177.7,110.94,177.7
			z"/>
		<path class="st0" d="M122.97,164.48v8.88h1.26v2.53h-1.29c-0.13,1.98-0.92,3.51-2.36,4.56c-1.19,0.88-2.65,1.31-4.39,1.31
			c-0.3,0-0.62-0.01-0.97-0.02l-1.22-1.51v-1.07c0.53,0.08,1.04,0.12,1.54,0.12c2.93,0,4.39-1.42,4.39-4.27v-10.54H122.97z"/>
		<path class="st0" d="M128.65,173.36v2.53h-4.59v-2.53H128.65z"/>
		<path class="st0" d="M135.92,158.13v10.52c2.22-2.99,4.97-4.49,8.26-4.49c1.97,0,3.59,0.63,4.86,1.89
			c1.17,1.14,1.76,2.55,1.76,4.24v2.88c0,0.78-0.29,1.44-0.87,1.98c-0.53,0.5-1.13,0.74-1.81,0.74h-19.67v-2.53h4.46v-15.23H135.92z
			 M147.78,170.43c-0.02-1.02-0.36-1.85-1.02-2.48c-0.76-0.79-1.79-1.19-3.1-1.19c-1.32,0-2.59,0.44-3.79,1.31
			c-1.55,1.12-2.87,2.89-3.94,5.28h11.24c0.41,0,0.62-0.21,0.62-0.62V170.43z"/>
	</g>
</g>
</svg>
