<?xml version="1.0" encoding="UTF-8"?>
<svg id="Layer_1" xmlns="http://www.w3.org/2000/svg" version="1.1" viewBox="0 0 154.9 218.3">
  <!-- Generator: Adobe Illustrator 29.1.0, SVG Export Plug-In . SVG Version: 2.1.0 Build 142)  -->
  <defs>
    <style>
      .st0 {
        fill: #2d304f;
      }
    </style>
  </defs>
  <g>
    <path class="st0" d="M92.1,52.1c-.8,0-1.5-.1-2.3-.1-.8,0-1.1.3-.6,1.1,1.1,1.9,2.3,3.3,4.8,3.3,1.7,0,3.5.4,4.3,2.4-.6.3-.7-.2-1-.4-.5-.4-1-.7-1.6-.8-.3,0-.5,0-.7.2-.1.2,0,.4.2.6,1.1,1,1.4,2.2,1.5,3.6.1,1.8,1.8,3.5,3.4,3.9,1.1.3,2-.7,3.1-.6.2,0,.5,0,.7-.1,0,.2,0,.3,0,.3-1.1.8-1.4,2-1.7,3.3-.4,1.9-2.3,2.2-3.8,2.8-.8.3-1.6.5-1.2,1.7.1.4-.2.7-.5.9-2.6,1.6-2.3,4-1.7,6.5.3,1.3,1.1,2.5,1.8,3.6,1,1.5,2,3,2.4,4.8.3,1.6-.2,2.4-1.8,2.3-3.1-.3-6.2,0-9.3.6-4,.7-7.6,2.3-11.1,4.4-2.7,1.7-5.6,2.5-8.7,2.8-1.5.1-1.9-.2-1.4-1.7.8-2.4.8-4.8.1-7.3-.4-1.3-.4-2.7-.5-4.1-.1-2.6-1.3-4.1-3.8-4.8-1.5-.4-3-.7-4.6-.8-2.4-.2-3.6-1.7-3.2-4.1.2-1.3.7-2.6,0-3.9,0-.1,0-.4,0-.5.7-1.2.4-2.3-.6-3.3-.3-.3-.1-.7,0-1.1.4-1.3,0-1.8-1.3-1.9-.8,0-1.6,0-2.3,0-1.2-.1-1.5-.7-1.1-1.8.2-.6.4-1.2.8-1.6,1.1-1.2,1.6-2.6,2-4,.5-1.6,1.1-3.1,2.2-4.4,1-1.2,1.4-2.6,1.3-4.1,0-1.1.3-2.1.9-3.1.7-1,1.1-2.2,1.2-3.4.2-1.9,1-3.6,1.9-5.2.4-.7.7-1.5.7-2.3,0-1,.3-1.9,1.1-2.6.5-.4.9-.7,1,.3,0,.3,0,.6.4.6.3,0,.4-.3.5-.6.3-.6.6-1.3.9-1.9.3-.5.6-.6.8,0,.1.3.3.6.6.9.3.2.6.5.9.2.4-.3,0-.6,0-.9-.5-1.2-.5-2.3.9-3,.4-.2.4-.5.5-.9.1-.5.2-1,.4-1.5.7-1.5,1.1-1.5,2.1-.3.6.8,1.2,1.5,2.5,1.2.6-.2,1.3.2,1.9.3,1.1.1,2.3,0,3.3-.5,2-.7,4-.7,5.9-.3,3.6.8,7.1,1.9,10.1,4.2,2.2,1.7,4.4,3.2,6.3,5.2,1.6,1.7,2.6,3.5,2.9,5.8.1,1,.5,1.9,1,2.8,1.9,2.7,1.6,5.6.5,8.4-.3.8-.6,1.5-.3,2.4.2.9-.1,1.7-.2,2.6,0,.6-.4,1.2.4,1.8.7.5-.5,4.2-1.3,4.6-.9.4-1.6.2-2-.8-.4-1-.3-2-.1-3.1.2-1.1.6-2.2.2-3.3,0-.3-.2-.5-.5-.6-.3,0-.4.3-.5.5-.2.5-.3,1.5-.9,1.4-.7-.2-.2-1.1-.2-1.7.2-1.9-.1-3.6-1-5.3-.2-.4-.3-.7-.5-1-.2-.4,0-1-.6-1-.5,0-.7.6-.9,1-.4.9-.4,1.9-.7,2.9-.7-.1-.6-.7-.6-1-.3-2-1.3-3.7-2.9-4.9-1.2-.9-2.4-1.8-2.4-3.5,0-.2-.1-.4-.4-.5-.3,0-.4.2-.5.3-.4.6-.6,1.3-.6,2,0,.4.2.9-.2,1.4-1.1-1-1.3-2.4-1.4-3.8-.1-1.8-.9-3.2-2-4.6-.2-.3-.5-.7-1-.6-.4.1-.4.5-.5.9-.5,1.5-.3,3,.2,4.5-1-.8-1.3-2-1.4-3.2,0-1.2-.3-2.2-1.4-2.8-.4-.2-.5-.6-.5-1-.2-1.8-1.1-3.3-2.5-4.5-.9-.8-1.9-1.6-2.6-2.7-.4-.7-.9-.6-1.2.1-.3.7-.6.7-1.1.1-.8-1-1.9-1.6-2.8-2.5-.6-.7-1-.3-1.2.4-.3,1.1.2,2,.5,3,.1.4.9,1-.4,1.1-.6,0-.3.8-.1,1.2.6,1.6,1.9,2.4,3.4,3,1.2.5,2.4,1,3.2,2.6-1.1-.6-1.9-1.1-2.7-1.5-.4-.2-.8-.5-1.2,0-.3.4.1.7.2,1.1.8,3.4,3.3,4.4,6.5,4.4,0,0,.2,0,.3,0,.5,0,1.3-.2,1.3.4,0,.8-.8.4-1.4.5-.3,0-.8-.2-.9.3-.1.4.3.6.5.8,1.5,1.6,3.4,2.4,5.7,1.9.2,0,.4,0,.6,0,.3,0,.6,0,.6.3,0,.3-.3.4-.6.4-1.1,0-2.2,0-3.2.7-.3.2-.7.3-.6.7,0,.4.5.3.8.3,1.2.1,2.4.5,3.4,1.3,1.2,1,2.5,1.3,4,1.2,1,0,2,0,2.7,1Z"/>
    <path class="st0" d="M34.4,82.5c.6.2.7.7.9,1.1,1,2.4,2.5,4,5,5.2,7.8,3.7,15.5,7.6,23.3,11.4,6.2,3,12.3,6.1,18.5,9.1,8,3.9,16,7.9,23.9,11.8,1.5.7,3,1.5,4.5,2.1,1.7.7,3.4,1,5.2,1,.3,0,.8,0,.9.3.1.3-.2.6-.4.7-5.2,4.5-11.2,6.5-18,3.3-5.3-2.5-10.6-5.1-15.8-7.7-20.3-10-40.5-20-60.8-29.9-3.5-1.7-5.2-4.7-6.1-8.2-.5-1.7-.7-3.5-1-5.2-.2-1.3.1-1.6,1.4-1,2.2,1,4.3,2.1,6.4,3.2.5.3,1,.6,2,.7-1.1-1.1-2.2-1.8-3.4-2.3-3.6-1.6-6-4.2-6.8-8.1-.2-1.1-.1-2.2-.1-3.2,0-.3,0-.6.3-.7.3-.1.5,0,.6.3.9,1.5,2.4,2.1,3.8,2.8,1.4.7,2.6,1.6,3.3,3,.2.5.5,1,1.1,1,.6,0,.6-.7.8-1.1.9-2,2.6-3.4,3.9-5,.3-.4.6-.7.9-1.1.2-.2.2-.7.6-.5.3.1.2.5.2.8,0,2.5,0,4.9-.6,7.4-.3,1.3-1.1,2.2-2,3.2-.9,1.1-1.2,2.4-1.4,3.7,0,.7.3,1,.8,1.2.6.2.9,0,1.1-.6.9-2.1,2.3-4,2.7-6.3,0-.2,0-.5.3-.5.3,0,.4.1.5.3.6,2.4,1.9,4.5,1.9,7,0,.7-.2,1.4-.4,2-.3,1,.3,1.4,1.1,1.5.9.1.7-.7.8-1.2,0-.5-.1-1.1.2-1.6Z"/>
    <path class="st0" d="M93.1,138.2c-2.7-.1-5.3-.9-7.7-2.1-11.2-5.5-22.4-11-33.6-16.5-6.8-3.3-13.5-6.7-20.4-10-3.2-1.5-5-4-6.1-7.1-.7-1.8-1-3.8-1.2-5.7-.2-1.9,0-2.1,1.8-1.3,5.3,2.6,10.7,5.2,16,7.9,8.3,4.1,16.5,8.1,24.8,12.2,9.2,4.5,18.3,9.1,27.5,13.5,3.1,1.5,6.3,3,9.9,3.1.2,0,.6,0,.7.3.1.3-.1.5-.3.6-3.2,2.8-6.9,4.6-11.2,5Z"/>
    <path class="st0" d="M120.9,83.1c.4.6.2,1,.3,1.3,0,.4-.1,1.1.6,1,.6,0,1.3-.3,1-1.2-.8-3.1.5-5.8,1.6-8.6.1-.3.2-.6.6-.6.4,0,.4.4.4.7,0,2,1.2,3.5,1.9,5.2.5,1.1,1,1.3,2,.7,3.3-1.7,6.6-3.3,9.9-4.9.3-.2.7-.6,1.1-.3.4.3.3.8.2,1.2-.4,3.5-1.1,6.9-3,9.9-.9,1.4-2.1,2.5-3.5,3.2-7.2,3.7-14.4,7.3-21.6,10.9-6.4,3.2-12.8,6.5-19.2,9.7-.8.4-1.5.5-2.3,0-2.9-1.5-5.8-2.9-8.6-4.3-.4-.2-.9-.3-.9-.8,0-.4.5-.6.9-.7,4.8-2.4,9.5-4.8,14.3-7.2,6.6-3.3,13.2-6.7,19.8-10,1.2-.6,2.2-1.5,2.8-2.7.5-.9,1.1-1.6,1.8-2.5Z"/>
    <path class="st0" d="M81.5,146.1c-2.7-.1-5-.7-7.2-1.8-6.7-3.2-13.3-6.5-20-9.8-4.7-2.3-9.5-4.8-14.2-7.1-1.8-.9-3.1-2.2-4.1-3.9-1.6-2.7-2.3-5.7-2.6-8.8-.1-1.4.1-1.6,1.4-1,6.1,3,12.2,6,18.2,9,10.7,5.2,21.4,10.5,32.1,15.7,2.2,1.1,4.5,1.6,6.9,1.7.3,0,.7,0,.8.2.2.4-.2.5-.4.7-3.2,2.9-6.9,4.6-11,5Z"/>
    <path class="st0" d="M130.8,96.5c-.2,2.8-.8,5.9-2.3,8.8-1,2-2.5,3.4-4.5,4.4-5.7,2.9-11.5,5.8-17.2,8.7-.6.3-1.2.4-1.8,0-3-1.5-6.1-3-9.1-4.6-.3-.2-.9-.2-.8-.7,0-.4.5-.5.8-.6,9.5-4.8,19-9.6,28.5-14.4,1.8-.9,3.6-1.9,5.4-2.8.8-.4,1.3-.3,1.1,1.2Z"/>
    <path class="st0" d="M126.6,66.3c1.5,2.7,4.5,4.3,5.4,7.4.2.6.5.9.9.2,1.4-2.4,3.4-3.9,6-4.7.9-.3,1.3-1.1,1.9-1.8.2-.3.5-.6.8-.5.4.1.3.6.3.9.1,2.1-.2,4.2-1.1,6.1-.5,1.1-1.2,1.9-2.3,2.5-2.5,1.4-5.2,2.5-7.7,3.8-.7.3-1,.2-1.2-.5-.4-1-1.1-1.8-1.8-2.7-1.1-1.4-1.7-3-1.7-4.8,0-1.9-.1-3.8.5-5.8Z"/>
    <path class="st0" d="M126.3,57.6c0-.5-.2-1,.2-1.2.5-.2.6.4.8.7.7.9,1.5,1.8,2.5,2.5,1.2.9,2.4,1.9,3.2,3.2.4.7.9.8,1.1,0,.6-1.7,1.7-3,3-4.2,1.2-1.1,2.4-2.1,3.2-3.6.2-.4.6-.8.9,0,1.6,3.9,0,9.4-3.2,11.3-1.4.8-2.5,1.9-3.6,3-.6.6-.9,1.7-1.7,1.7-1,0-.6-1.3-1-2-.4-.6-.8-1.1-1.4-1.6-2.3-1.7-3.3-4.1-3.7-6.9-.1-1-.3-2-.5-2.8Z"/>
    <path class="st0" d="M29.1,55.2c.2.2.3.3.3.3-.8,4-.6,8.4-4.4,11.3-.9.7-1.5,1.7-1.8,2.8-.1.4-.4,1.1-.8.4-1.3-2.1-3.5-3.3-5.2-4.9-3-2.9-3.6-6.4-2.9-10.3,0-.4.1-1,.6-1.1.5-.1.6.5.9.8.7.9,1.4,1.8,2.3,2.5,1.6,1.4,2.8,3,3.4,5,0,.3.1.7.5.7.4,0,.5-.3.6-.6.6-1.5,1.7-2.4,3.1-3.2,1.1-.6,1.9-1.6,2.7-2.6.3-.4.5-.7.8-1.1Z"/>
    <path class="st0" d="M139.8,48.7c.3,2.1-.4,3.8-1.8,5.3-1.5,1.7-3,3.4-3.9,5.5-.4.8-.8,1-1.3,0-.4-.8-1-1.5-1.8-1.9-3.3-1.5-4.8-4.5-5.9-7.7-.2-.7-.4-1.3-.6-2,0-.2-.2-.5.1-.7.2-.1.4.1.6.3.5.4,1,.9,1.5,1.3,1.1.8,2.1,1.6,3.5,2,.9.2,1.4,1,2,1.6.5.6,1.1.6,1.1-.3.3-2.8,1.9-4.9,3.5-7,.2-.3.4-.7.6-1,.3-.4.1-1.3.7-1.3.7,0,.6.9.8,1.4.6,1.4,1.1,2.8.9,4.3Z"/>
    <path class="st0" d="M17.9,42.2c.4.1.5.5.5.8.2,1,.7,1.8,1.3,2.5,1.3,1.6,2.3,3.4,2.5,5.5,0,.4,0,.8.5,1,.5.1.7-.3.9-.6.6-1,1.5-1.6,2.5-2,1.5-.6,3-1.2,4.1-2.5.2-.2.5-.5.8-.3.3.2.1.5,0,.7-.9,2-1.5,4.1-2.6,6-.7,1.3-1.7,2.3-3,3-1.2.6-2.2,1.3-2.8,2.6-.3.5-.5.8-1,0-1.5-2.4-3.1-4.7-4.6-7.1-2-3.2-1-6.7.4-9.3,0-.2.2-.4.5-.4Z"/>
    <path class="st0" d="M35.3,38.1c-.3,1.1-1,1.9-1.5,2.8-1.6,3-3.8,5.2-7.3,5.7-.9.2-1.4,1-2,1.6-.5.5-1.1.7-1.2-.2-.2-2.3-1.5-4.2-2.4-6.1-2-3.9-.7-7.3,1.5-10.6.2-.2.4-.5.7-.5.3,0,.5.3.5.6,0,1.9,1.1,3.4,1.6,5.2.4,1.4.4,2.9.4,4.4,0,.4,0,.8.4,1,.4.1.6-.2.9-.4.8-.7,1.8-1.1,2.8-1.3,1.6-.3,3.1-.8,4.4-1.9.3-.2.6-.6,1.1-.3Z"/>
    <path class="st0" d="M129.5,30.3c0,1-.1,2-.4,3-.5,1.8-.7,3.6-.7,5.4,0,.8-.3,1.1-1,.5-.8-.7-1.8-.9-2.8-1-3.2-.3-5.4-2.1-7.2-4.6-.5-.7-1.1-1.5-1.6-2.2-.2-.2-.5-.5-.3-.8.2-.4.6-.3.9-.1,2.3,1.1,5,.7,7,2.5.3.2.6.4,1,.2.4-.3.2-.6.1-1-.9-2.7-.5-5.5-.5-8.3,0-.4,0-1.1.5-1.2.4-.1.8.3,1.1.6,2,2,3.9,4,3.9,7.1Z"/>
    <path class="st0" d="M120.4,38.7c2.1,1.6,4.5,2.2,6.9,2.9.5.1.9.6,1.4.9.7.5,1.2.4,1.2-.6-.2-2.8.6-5.4,2-7.8.3-.6.4-1.2.4-1.9,0-.3,0-.5.4-.6.3,0,.4.2.5.4,2.5,3.5,3.6,7.1,1.3,11.1-1,1.8-1.9,3.7-2.4,5.8-.1.6-.5.7-.9.2-.9-1.4-2.2-1.8-3.7-2.1-1-.2-1.8-.7-2.5-1.4-2-2-3-4.6-4.7-6.9Z"/>
    <path class="st0" d="M31.9,25.7c.2,2,0,3.7-.5,5.5-.1.4-.4,1,0,1.3.5.4.9-.2,1.3-.4,2.1-1.5,4.7-1.7,7.1-2.3.2,0,.6-.1.7.2.1.3-.1.5-.3.7-1.6,2.4-3.6,4.4-6,5.9-.8.5-1.7.7-2.6.8-1.2.1-2.4.3-3.4,1.1-.3.2-.8.4-.7-.1.2-2.9-1.1-5.6-1-8.5,0-3.3,2.2-5.4,4.3-7.5.7-.7,1.1-.2,1.2.6,0,1,0,2,0,2.8Z"/>
    <path class="st0" d="M122.2,23.9c0,1.8-.5,3.7.1,5.5.1.4,0,.8-.5.6-1.9-.9-4-.7-6-1.2-2.8-.7-4.5-3-6.6-4.7-.1,0-.2-.3-.2-.4,0-.3.3-.3.5-.2,2.4.9,5-.2,7.3.9.7.3,1-.1.7-.7-1.6-2.4-.8-5.2-1.5-7.7,0-.3-.2-.6,0-.9.3-.3.7,0,.9.1,3.4,1.9,5.3,4.7,5.1,8.7Z"/>
    <path class="st0" d="M33.7,28.3c.5-2.6,0-5.3.7-7.9.7-2.7,2.6-4.4,4.9-5.7.2,0,.5-.2.6,0,.3.1.2.5,0,.7-.4.9-.4,1.8-.3,2.7.1,1.6-.2,3.1-1,4.5-.2.4-.5.9,0,1.3.4.4.8-.1,1.2-.2,2.2-.5,4.5-.4,6.8-.5.6,0,.3.4,0,.7-2.5,2.9-5.5,4.8-9.4,4.7-.8,0-1.6.3-2.4.6-1.1.5-1.3.3-1.3-.9Z"/>
    <path class="st0" d="M46.3,21.7c-.8,0-1.5-.2-2.2-.3-.4,0-.9-.1-1.3-.2-.6-.1-1.2.8-1.6,0-.2-.4.3-1.1.5-1.7.3-1.3.5-2.6.8-3.9.7-2.9,3.2-4.7,6-5.5.5-.1.8,0,.6.6-.8,2-1,4.2-2.6,5.9-.3.3-.6.7-.3,1.2.3.5.8.2,1.2.2,2.2-.3,4.4.3,6.6.2.1,0,.4.1.4.2,0,.2-.1.4-.3.5-.9.6-1.7,1.2-2.7,1.5-1.6.6-3.3,1.1-5,1.2Z"/>
    <path class="st0" d="M107.2,10.7c3.9.7,5.8,2.6,6.5,6.4.3,1.5.6,2.9,1.2,4.2.3.6.2.9-.5.7-.5-.1-1-.2-1.4,0-3.5,1.2-6.4-.5-9.4-2-.6-.3-1.2-.5-1.6-1.1,0,0,.1-.2.2-.2,2.5.4,4.9-.3,7.3-.3.4,0,1,0,.5-.6-1.4-1.6-1.6-3.6-2.2-5.5-.2-.5-.4-1-.7-1.7Z"/>
    <path class="st0" d="M120.6,116c0,1-.2,1.9-.4,2.8-.6,3-1.5,3.6-5.1,3.5-2,0-4-.8-5.8-1.8-.7-.4-.8-.7,0-1,3.4-1.7,6.9-3.4,10.3-5.1.8-.4,1,0,1,.7,0,.3,0,.6,0,.9Z"/>
    <path class="st0" d="M55,17c-1.8,0-3.5-.9-5.4-.4-.5.1-.6-.4-.3-.7.9-1,1.1-2.3,1.4-3.5.6-2.7,2.7-3.9,5.1-4.6.2,0,.5-.2.7,0,.1.2,0,.4-.2.6-.9,1.4-.7,3.2-1.6,4.6-.3.5.2.8.7.8,1.9-.1,3.5.8,5.4.9.2,0,.6,0,.6.4,0,.2-.2.3-.4.4-2,.5-3.8,1.5-5.9,1.4Z"/>
    <path class="st0" d="M94.6,15.4c2.3-.4,4.2-.7,6.1-.9,1-.1,1.2-.4.8-1.3-.5-1.3-.5-2.8-1.3-4.1-.4-.6.2-.7.7-.6,2.2.5,3.9,1.6,4.6,3.9.4,1.3.5,2.8,1.4,3.9.3.4.2.6-.3.7-3.8.6-7.6.6-11.2-1-.1,0-.3-.2-.7-.5Z"/>
    <path class="st0" d="M61.6,12.3c-1.4,0-2.5,0-3.6.2-.3,0-.7.1-.8-.1-.2-.3.1-.5.3-.8,2.2-2.2,4.7-3.3,7.8-3.2.5,0,.9.1,1.3.5.6.5,1.3,1.1,1,2-.3.9-1.1,1.2-2,1.2-1.5,0-2.9.5-4.1.3Z"/>
    <path class="st0" d="M91.9,8.7c2.6.3,4.9,1.2,6.8,3,.2.2.6.5.5.9-.2.4-.6.2-.9.2-2.2-.4-4.5.1-6.7-.4-.3,0-.6,0-.9-.2-.9-.2-1.9-.3-1.8-1.5,0-1.1.9-1.6,1.9-1.9.4-.1.8,0,1.2-.1Z"/>
  </g>
  <g>
    <path class="st0" d="M17.6,201.4h-2.9c-.4-1.7-1.4-2.5-3.1-2.5s-2.2.5-2.9,1.5c-.6.9-.9,2.1-.9,3.5s.4,2.9,1.1,3.8c.6.8,1.5,1.1,2.6,1.1s1.7-.2,2.3-.7c.6-.5.9-1.2,1-2.1h2.9c0,1.8-.8,3.1-2,4.1-1.1.8-2.5,1.3-4.2,1.3s-3.9-.8-5.1-2.3c-1-1.3-1.6-3.1-1.6-5.2s.7-4.4,2-5.8c1.2-1.2,2.7-1.8,4.7-1.8s4,.8,5.1,2.3c.6.8.9,1.7,1,2.8Z"/>
    <path class="st0" d="M28.5,208.2h-5.5l-1,3h-3.1l5.2-14.7h3.3l5.1,14.7h-3.1l-1-3ZM27.6,205.7l-1.9-5.7-1.9,5.7h3.8Z"/>
    <path class="st0" d="M37.5,204.9v3.8h8v2.5h-11v-14.7h10.6v2.5h-7.6v3.3h7v2.5h-7Z"/>
    <path class="st0" d="M58.5,200.9h-2.8c0-1.5-1.1-2.2-3.1-2.2s-1.4.2-1.9.5c-.5.3-.7.7-.7,1.3s.2.9.6,1.2c.4.3,1.1.5,2.2.7l2.3.4c1.4.3,2.3.7,3,1.3s.9,1.5.9,2.7-.6,2.8-1.8,3.6c-1,.7-2.4,1.1-4.2,1.1s-3.5-.5-4.6-1.4c-.9-.8-1.4-1.9-1.5-3.4h2.9c.1,1.6,1.2,2.3,3.3,2.3s1.7-.2,2.2-.5c.5-.3.8-.8.8-1.4s-.2-1-.6-1.3c-.4-.3-1.1-.6-2.1-.8l-2-.4c-1.5-.3-2.6-.7-3.2-1.3s-1-1.5-1-2.6.6-2.7,1.7-3.4c1-.7,2.3-1,3.9-1s3.5.5,4.5,1.4c.9.8,1.3,1.9,1.3,3.3Z"/>
    <path class="st0" d="M69.8,208.2h-5.5l-1,3h-3.1l5.2-14.7h3.3l5.1,14.7h-3.1l-1-3ZM69,205.7l-1.9-5.7-1.9,5.7h3.8Z"/>
    <path class="st0" d="M78.8,205.4v5.8h-3v-14.7h7.9c1.2,0,2.2.3,2.8,1,.7.8,1.1,1.7,1.1,3,0,1.8-.8,3-2.5,3.6.9.4,1.5.8,1.7,1.4.2.4.3,1.7.3,4,0,.6.2,1,.6,1.2v.6h-3.2c-.3-.6-.5-1.4-.5-2.5s0-.6,0-1v-.6c0-1.2-.6-1.7-1.9-1.7h-3.5ZM78.8,202.8h3.6c.8,0,1.3-.1,1.6-.4.4-.3.6-.8.6-1.6s-.2-1.2-.6-1.5c-.3-.3-.8-.4-1.6-.4h-3.6v3.8Z"/>
    <path class="st0" d="M97,205.4v5.8h-3v-14.7h7.9c1.2,0,2.2.3,2.8,1,.7.8,1.1,1.7,1.1,3,0,1.8-.8,3-2.5,3.6.9.4,1.5.8,1.7,1.4.2.4.3,1.7.3,4,0,.6.2,1,.6,1.2v.6h-3.2c-.3-.6-.5-1.4-.5-2.5s0-.6,0-1v-.6c0-1.2-.6-1.7-1.9-1.7h-3.5ZM97,202.8h3.6c.8,0,1.3-.1,1.6-.4.4-.3.6-.8.6-1.6s-.2-1.2-.6-1.5c-.3-.3-.8-.4-1.6-.4h-3.6v3.8Z"/>
    <path class="st0" d="M114.8,196.3c2.1,0,3.7.7,5,2,1.4,1.4,2,3.3,2,5.6s-.7,4.1-2,5.6c-1.2,1.3-2.9,2-5,2s-3.8-.7-5-2c-1.4-1.5-2-3.3-2-5.6s.7-4.1,2-5.6c1.3-1.3,2.9-2,5-2ZM114.8,198.9c-1.3,0-2.3.5-3.1,1.5-.6.9-1,2-1,3.4s.4,2.9,1.2,3.8c.7.8,1.7,1.2,2.8,1.2s2.3-.5,3.1-1.5c.6-.9,1-2,1-3.4s-.4-2.9-1.2-3.8c-.7-.8-1.7-1.2-2.8-1.2Z"/>
    <path class="st0" d="M132.8,208.2h-5.5l-1,3h-3.1l5.2-14.7h3.3l5.1,14.7h-3.1l-1-3ZM131.9,205.7l-1.9-5.7-1.9,5.7h3.8Z"/>
    <path class="st0" d="M138.7,211.2v-14.7h5.7c2.1,0,3.7.6,4.6,1.7,1.2,1.4,1.8,3.3,1.8,5.6s-.6,4.2-1.8,5.6c-1,1.1-2.5,1.7-4.6,1.7h-5.7ZM141.8,208.7h2.7c2.3,0,3.4-1.6,3.4-4.8s-1.1-4.8-3.4-4.8h-2.7v9.6Z"/>
  </g>
  <g>
    <path class="st0" d="M13.8,164.5v8.9h1.3v2.5h-1.3c-.1,2-.9,3.5-2.4,4.6-1.2.9-2.7,1.3-4.4,1.3s-.6,0-1,0l-1.2-1.5v-1.1c.5,0,1,.1,1.5.1,2.9,0,4.4-1.4,4.4-4.3v-10.5h3Z"/>
    <path class="st0" d="M19.5,173.4v2.5h-4.6v-2.5h4.6Z"/>
    <path class="st0" d="M26.8,168.6c2.2-3,5-4.5,8.2-4.5s3.6.6,4.9,1.9c1.2,1.1,1.8,2.5,1.8,4.3v2.3c0,0,0,.2,0,.4v.4h.8v2.5h-.5l-.8-1h0c-.5.7-1.2,1-2.1,1h-19.6v-2.5h4.5v-8.9s3,0,3,0v4.2ZM38.6,170.4c0-1.2-.5-2.1-1.4-2.8-.8-.6-1.7-.8-2.8-.8-1.7,0-3.2.7-4.6,2.1-1.3,1.1-2.3,2.6-3.1,4.5h11.2c.4,0,.6-.2.6-.6v-2.3Z"/>
    <path class="st0" d="M49.7,164.5v8.9h1.3v2.5h-.9l-.9-1h0c-.6.7-1.3,1-2.1,1h-4.8v-2.5h3.7c.2,0,.4,0,.5-.2.1-.1.2-.3.2-.5v-8.2h3ZM44.3,177.7c.4,0,.8.2,1.1.5s.5.7.5,1.1-.2.8-.5,1.1c-.3.3-.7.5-1.1.5s-.8-.2-1.1-.5-.5-.7-.5-1.1.2-.8.5-1.1c.3-.3.7-.5,1.1-.5ZM48.1,177.7c.4,0,.8.2,1.1.5.3.3.5.7.5,1.1s-.2.8-.5,1.1c-.3.3-.7.5-1.1.5s-.8-.2-1.1-.5-.5-.7-.5-1.1.2-.8.5-1.1c.3-.3.7-.5,1.1-.5Z"/>
    <path class="st0" d="M55.8,173.4c-.7-1-1.1-2.2-1.1-3.6s.3-2.4,1-3.3c1-1.5,2.5-2.3,4.5-2.3s2.7.5,3.7,1.4c1.2,1.1,1.8,2.5,1.8,4.2s-.4,2.6-1.1,3.6h1.7v2.5h-3.7c-1.1,0-1.9-.1-2.3-.3h-.1c-.5.2-1.2.3-2.3.3h-6.9v-2.5h4.9ZM58.3,159c.4,0,.8.2,1.1.5.3.3.5.7.5,1.1s-.2.8-.5,1.1c-.3.3-.7.5-1.1.5s-.8-.2-1.1-.5c-.3-.3-.5-.7-.5-1.1s.2-.8.5-1.1.7-.5,1.1-.5ZM60.1,173.3c.7,0,1.3-.4,1.8-1,.5-.6.7-1.4.7-2.3s-.2-1.8-.7-2.4c-.4-.6-1.1-.9-1.8-.9s-1.3.3-1.8.9c-.5.6-.7,1.4-.7,2.4s.2,1.7.7,2.3c.5.6,1.1.9,1.8,1ZM62.1,159c.4,0,.8.2,1.1.5.3.3.5.7.5,1.1s-.2.8-.5,1.1c-.3.3-.7.5-1.1.5s-.8-.2-1.1-.5c-.3-.3-.5-.7-.5-1.1s.2-.8.5-1.1c.3-.3.7-.5,1.1-.5Z"/>
    <path class="st0" d="M73.5,158.1v15c0,.7-.2,1.3-.7,1.8-.5.6-1.2.9-2,.9h-4.8v-2.5h3.8c.2,0,.3,0,.5-.2s.2-.3.2-.4v-14.6h3Z"/>
    <path class="st0" d="M80,158.1v17.1l-1.5,1.2h-1.5v-18.4h3Z"/>
    <path class="st0" d="M99.3,175.9c-1.8,0-3.2-.6-4.3-1.9-.9-1.1-1.3-2.5-1.3-4.2s.5-2.9,1.5-3.9c1.1-1.1,2.5-1.7,4.3-1.7s2.4.3,3.2.9c1.2.9,1.8,2.1,1.8,3.7v4.6h.8v2.5h-.8c-.1,1.9-.8,3.3-2.1,4.3-1.2,1.1-2.9,1.6-5,1.6h-2.5c-2.3,0-4.1-.6-5.3-1.9-1.2-1.1-1.7-2.7-1.7-4.6v-2.8l1.5-1.2h1.5v3.7c0,1.6.4,2.6,1.2,3.3.8.6,2.1,1,4.1,1s2.9-.2,3.6-.6c.9-.5,1.5-1.4,1.6-2.8h-2.1ZM97.6,159c.4,0,.8.2,1.1.5.3.3.5.7.5,1.1s-.2.8-.5,1.1c-.3.3-.7.5-1.1.5s-.8-.2-1.1-.5c-.3-.3-.5-.7-.5-1.1s.2-.8.5-1.1.7-.5,1.1-.5ZM101.5,168.8c0-.6-.2-1.2-.7-1.6-.4-.3-.8-.5-1.3-.5-.8,0-1.4.3-1.9.8-.6.6-.8,1.4-.8,2.6s.2,1.7.7,2.3c.5.7,1.3,1,2.3,1h1.7v-4.6ZM101.4,159c.4,0,.8.2,1.1.5.3.3.5.7.5,1.1s-.2.8-.5,1.1c-.3.3-.7.5-1.1.5s-.8-.2-1.1-.5-.5-.7-.5-1.1.2-.8.5-1.1c.3-.3.7-.5,1.1-.5Z"/>
    <path class="st0" d="M112.6,164.5v8.7c0,.6-.2,1.2-.6,1.8-.5.6-1.2.9-2,.9h-4.8v-2.5h3.8c.2,0,.3,0,.5-.2s.2-.3.2-.4v-8.3h3ZM107.1,177.7c.4,0,.8.2,1.1.5.3.3.5.7.5,1.1s-.2.8-.5,1.1c-.3.3-.7.5-1.1.5s-.8-.2-1.1-.5-.5-.7-.5-1.1.2-.8.5-1.1c.3-.3.7-.5,1.1-.5ZM110.9,177.7c.4,0,.8.2,1.1.5.3.3.5.7.5,1.1s-.2.8-.5,1.1c-.3.3-.7.5-1.1.5s-.8-.2-1.1-.5c-.3-.3-.5-.7-.5-1.1s.2-.8.5-1.1c.3-.3.7-.5,1.1-.5Z"/>
    <path class="st0" d="M123,164.5v8.9h1.3v2.5h-1.3c-.1,2-.9,3.5-2.4,4.6-1.2.9-2.7,1.3-4.4,1.3s-.6,0-1,0l-1.2-1.5v-1.1c.5,0,1,.1,1.5.1,2.9,0,4.4-1.4,4.4-4.3v-10.5h3Z"/>
    <path class="st0" d="M128.7,173.4v2.5h-4.6v-2.5h4.6Z"/>
    <path class="st0" d="M135.9,158.1v10.5c2.2-3,5-4.5,8.3-4.5s3.6.6,4.9,1.9c1.2,1.1,1.8,2.6,1.8,4.2v2.9c0,.8-.3,1.4-.9,2-.5.5-1.1.7-1.8.7h-19.7v-2.5h4.5v-15.2h3ZM147.8,170.4c0-1-.4-1.9-1-2.5-.8-.8-1.8-1.2-3.1-1.2s-2.6.4-3.8,1.3c-1.6,1.1-2.9,2.9-3.9,5.3h11.2c.4,0,.6-.2.6-.6v-2.3Z"/>
  </g>
</svg>